<?xml version="1.0" encoding="utf-8"?>
<!-- Generator: Adobe Illustrator 28.2.0, SVG Export Plug-In . SVG Version: 6.00 Build 0)  -->
<svg version="1.1" id="Layer_1" xmlns="http://www.w3.org/2000/svg" xmlns:xlink="http://www.w3.org/1999/xlink" x="0px" y="0px"
	 viewBox="0 0 382.32 135" style="enable-background:new 0 0 382.32 135;" xml:space="preserve">
<style type="text/css">
	.st0{fill:none;}
	.st1{fill:#018AAA;}
	.st2{font-family:'Ubuntu-Regular';}
	.st3{font-size:19.2851px;}
	.st4{fill:#F9F6EE;}
	.st5{fill:#8EC640;}
	.st6{fill:#029DC1;}
	.st7{font-family:'Georgia-Bold';}
	.st8{font-size:56.5465px;}
	.st9{fill:#8DC63F;}
</style>
<g>
	<rect x="58.05" y="88.91" class="st0" width="312.54" height="20.3"/>
	<text transform="matrix(1 0 0 1 58.0513 103.8795)" class="st1 st2 st3">Physiotherapy and Wellness center</text>
	<g>
		<g>
			<path class="st4" d="M19.07,42.12c-0.16,0.11-0.35,0.14-0.63,0.17C18.58,42.21,18.81,42.12,19.07,42.12z"/>
			<path class="st5" d="M37.54,56.5c-0.1-1.28-0.23-2.46-0.44-3.58c-0.05,0.61-0.08,1.2-0.1,1.78c0.02-0.6,0.05-1.23,0.1-1.89
				c-0.02-0.43-0.13-0.69-0.23-0.95c-0.06-0.13-0.12-0.26-0.17-0.42c0.06,0.14,0.13,0.25,0.21,0.34c-0.09-0.27-0.2-0.49-0.31-0.66
				c-0.02-0.06-0.04-0.13-0.06-0.2c-0.53-1.55-1.05-2.91-1.57-4.28c-0.63,0.62-1.03,0.58-1.21-0.36c0.18,0.95,0.59,0.98,1.18,0.28
				c-1.27-2.41-2.86-4.48-4.92-6.12c-0.46-0.37-1.32-0.24-1.98-0.26c0.14,0.19,0.24,0.37,0.38,0.4c-0.14-0.03-0.24-0.21-0.46-0.41
				c-0.3,0.07-0.49,0.23-0.69,0.38c0.25,0.59,0.5,1.18,0.84,1.77c0.24-0.15,0.37-0.32,0.52-0.47c-0.15,0.15-0.28,0.31-0.34,0.46
				c0.31,0.68,0.7,1.36,1.08,2.11c0,0.01,0,0.01,0,0.01c-0.38-0.77-0.77-1.44-1.26-2.12c-0.35-0.59-0.59-1.18-0.92-1.72
				c-0.67,0.65-0.7,1.26-0.07,1.86c0.74,0.7,1.5,1.39,2.25,1.99c-0.01,0.07-0.02,0.09-0.02,0.09c0.14,0.12,0.28,0.25,0.41,0.39
				c-0.13-0.12-0.26-0.22-0.39-0.3c0.26,0.29,0.49,0.52,0.72,0.69c0.04,0.05,0.08,0.11,0.12,0.17c0.18,0.5,0.36,0.82,0.53,1.14
				c0.17,0.03,0.34,0.06,0.57,0.15c0.19,0.19,0.32,0.31,0.4,0.49c0.09,0.19,0.22,0.32,0.43,0.49c0.03,0.04,0.06,0.08,0.08,0.12
				c0.02,0.18,0.03,0.29,0.09,0.35c0.27,1.7,0.72,3.34,0.87,5.01c-0.16-1.67-0.6-3.31-0.92-4.97c-0.01-0.11-0.02-0.22-0.11-0.44
				c-0.21-0.24-0.35-0.38-0.49-0.52c-0.09-0.11-0.18-0.22-0.34-0.46c-0.24-0.16-0.41-0.19-0.54-0.13c2.33,4.59,2.53,9.29,1.52,14.12
				c0.62-0.12,0.88-0.4,0.98-0.77c-0.1,0.38-0.37,0.69-1.01,0.86c-0.14,0.38-0.15,0.66-0.2,0.94c-0.25,1.2-0.51,2.4-0.76,3.6
				c0.31,0.18,0.9,0.44,0.88,0.52c0.02-0.08-0.57-0.34-0.92-0.45c-0.14,0.21-0.27,0.33-0.32,0.48c-1.21,4-1.69,8.06-1.03,12.21
				c0.07,0.41,0.38,0.78,0.57,1.17c0.04-0.08,0.09-0.15,0.17-0.38c-0.07-2.41-0.22-4.67-0.28-6.93c0.06,2.26,0.21,4.52,0.33,6.89
				c0.65,0.36,0.66,0.8,0.7,1.45c-0.04-0.65-0.05-1.1-0.75-1.3c-0.1,0.11-0.14,0.19-0.17,0.36c0.43,1.69,0.85,3.28,1.36,4.83
				c0.23-0.31,0.37-0.58,0.52-0.85l0,0c0,0,0,0,0.06-0.06c-0.2,0.33-0.34,0.6-0.54,1c0.08,0.35,0.23,0.54,0.33,0.76
				c0.59,1.3,1.11,2.63,1.76,3.9c0.26,0.52,0.79,0.89,1.2,1.34c0.09-0.07,0.18-0.15,0.26-0.22c-0.68-3.87-1.36-7.73-2.04-11.6
				c-0.13-0.05-0.25-0.11-0.38-0.16c0.08-0.1,0.16-0.2,0.34-0.4c0.11-0.3,0.11-0.5,0.12-0.7c-0.3-0.1-0.6-0.21-0.91-0.32
				c0.32,0.11,0.62,0.21,0.94,0.22c0.08-0.8,0.11-1.5,0.19-2.19c0.13-1.17,0.29-2.33,0.37-3.48c0.03-0.02,0.05-0.03,0.08-0.05
				c0.79-2.54,1.44-5.02,1.99-7.48c-0.2,0.18-0.36,0.32-0.42,0.5c0.06-0.17,0.21-0.32,0.42-0.53c0.1-0.06,0.03-0.08,0.03-0.08
				c0.16-1.03,0.33-2.07,0.51-3.12c-0.17,1.03-0.31,2.05-0.43,3.05c0.33-1.7,0.58-3.35,0.8-5.01c0.04-0.19,0.07-0.37,0.11-0.56
				c0.18-0.6,0.26-1.15,0.34-1.69c-0.18-0.04-0.53-0.09-0.53-0.13C36.98,56.51,37.32,56.55,37.54,56.5z M32.28,83.48
				C32.28,83.48,32.28,83.48,32.28,83.48c0.06-0.31,0.03-0.64,0-0.96c0.03,0.32,0.06,0.65,0.09,0.97
				C32.37,83.49,32.37,83.49,32.28,83.48z M33.81,71.86c-0.07-0.15-0.27-0.25-0.26-0.29c-0.01,0.04,0.19,0.14,0.29,0.21
				c0.03-0.04,0.06-0.07,0.11-0.11C33.9,71.72,33.86,71.78,33.81,71.86z"/>
			<g>
				<path class="st6" d="M36.52,116.06c-0.09-3.17-0.09-6.31-0.55-9.37c-0.3-1.97-1.29-3.83-1.97-5.64c0.06,0.54-0.1,0.9,0.15,1.46
					c-0.25-0.56-0.09-0.92-0.2-1.54c-0.61-1.47-1.17-2.77-1.73-4.07c-0.54-0.15-1.08-0.3-1.62-0.45c0.54,0.15,1.08,0.3,1.58,0.36
					c-1.22-1.84-2.4-3.59-3.65-5.3c-0.22,0.32-0.38,0.6-0.53,0.87c0.15-0.27,0.31-0.55,0.53-0.95c-0.12-0.31-0.3-0.49-0.48-0.67
					c-0.32-0.09-0.84-0.09-0.92-0.28c-0.35-0.86-0.58-1.77-0.85-2.75c0-0.1,0.02-0.11,0.02-0.11c-0.51-0.2-0.92-0.47-1.22-0.85
					c0.3,0.36,0.7,0.61,1.19,0.77c-0.58-0.81-1.14-1.54-1.75-2.22c0,0.03,0.01,0.05,0.01,0.08c-0.01-0.05-0.02-0.1-0.02-0.16
					c0.02-0.24-0.01-0.34-0.04-0.44c-0.7-0.19-1.24-0.55-1.6-1.03c0.35,0.47,0.89,0.8,1.58,0.95c-0.65-0.99-1.29-1.89-2-2.73
					c-0.03,0.25-0.03,0.5-0.01,0.73c-0.04-0.26-0.04-0.53-0.01-0.82c-0.02-0.33-0.09-0.51-0.16-0.68c-0.07-0.1-0.14-0.21-0.22-0.33
					c0.07,0.1,0.14,0.19,0.2,0.25c-0.13-0.25-0.25-0.45-0.37-0.57c-0.01-0.03-0.03-0.06-0.04-0.09c0-0.13-0.04-0.21-0.04-0.21
					c-0.39-0.27-0.82-0.93-1.11-1.64c0.29,0.68,0.71,1.32,1.11,1.54c-0.44-1.17-0.88-2.24-1.39-3.26c-0.03,0.1-0.05,0.21-0.05,0.34
					c0-0.16,0.01-0.31,0.05-0.43c-0.03-0.41-0.13-0.68-0.23-0.95c-0.28,0.01-0.56,0.02-0.91,0.03c0.35-0.01,0.63-0.02,0.9-0.12
					c-0.13-0.52-0.26-0.95-0.47-1.36c-0.2,0.02-0.32,0.03-0.43,0.14c0-0.04-0.01-0.07-0.01-0.1c0.12-0.01,0.23-0.02,0.43-0.16
					c-0.05-2.46-0.19-4.8-0.41-7.08c0.01-0.04,0.01-0.07,0.02-0.11c0.17-0.6,0.22-1.06,0.32-1.51c0.31-1.46,0.64-2.91,0.97-4.36
					c-0.07-0.87-0.33-1.78-0.16-2.6c-0.17,0.82,0.09,1.73,0.19,2.52c0.43-1.67,0.82-3.25,1.22-4.83c0.12-0.61,0.24-1.22,0.27-1.9
					c-0.19,0-0.35,0.05-0.39,0.14c0.03-0.09,0.19-0.14,0.38-0.23c0.25-0.59,0.42-1.15,0.64-1.87c0.12-0.44,0.2-0.72,0.27-1
					c0.14-0.97,0.44-1.96,0.37-2.91c-0.11-1.39-0.5-2.77-0.77-4.25c-0.13-0.26-0.26-0.42-0.47-0.65c-0.03-0.05-0.05-0.09-0.06-0.13
					c0.01,0.02,0.02,0.05,0.04,0.07c0.01-0.12-0.05-0.25-0.1-0.33c0-0.05,0.04-0.16,0.02-0.21c-0.88,0.53-1.3-0.13-1.59-0.67
					c0.29,0.55,0.71,1.2,1.57,0.62c-0.84-0.96-1.67-1.91-2.54-2.95c-0.03-0.08-0.05-0.05-0.05-0.05c-0.54-0.32-1.08-0.64-1.71-1.02
					c-0.08-0.05-0.13-0.09-0.13-0.09c-0.4-0.07-0.8-0.15-1.34-0.28c-0.25-0.08-0.35-0.09-0.46-0.11c-0.19,0.03-0.37,0.06-0.72,0.13
					c-0.26,0.07-0.36,0.09-0.46,0.12c-0.18,0.15-0.35,0.3-0.55,0.51c-0.02,0.07,0,0.12,0.11,0.14c0.39,0.02,0.77,0.14,0.93,0
					c-0.16,0.14-0.54,0.02-0.91,0.02c-0.61,1.4-1.11,2.81-0.69,4.45c0.07,0.18,0.13,0.24,0.25,0.33c1.19,0.65,2.32,1.27,3.46,1.98
					c0.14,0.23,0.27,0.36,0.47,0.51c0.11-0.02,0.16-0.06,0.2-0.11c-0.05,0.04-0.09,0.09-0.11,0.18c0.08,0.12,0.15,0.16,0.23,0.1
					c-0.01,0.07,0,0.03-0.01,0.04c0.13,0.13,0.27,0.24,0.35,0.41c0.08,0.97-0.6,1.19-1.24,1.38c-0.43,0.13-0.91,0.19-1.36,0.17
					c-1.26-0.07-2.05,0.71-2.9,1.55c-0.51,1.59-0.28,3,0.52,4.45c-0.02,0.12,0.03,0.12,0.03,0.12c0.47,0.13,0.94,0.26,1.42,0.42
					c-0.47-0.14-0.93-0.25-1.39-0.35c0.84,0.31,1.64,0.55,2.43,0.72c0.09,0.04,0.19,0.07,0.28,0.11c1.25,0.86,1.02,1.72,0.35,2.63
					c0.18,0.59-0.07,0.83-0.4,0.96c0.33-0.13,0.55-0.36,0.32-0.92c-1.04,0.25-2.03,0.37-2.93,0.71c-0.73,0.28-1.36,0.83-1.93,1.25
					c1.37-0.29,2.66-0.53,3.91-0.87c-1.26,0.34-2.54,0.58-4,0.91c-1.46,2.54-0.08,4.36,2.57,4.52c1.51,0.09,2.02,0.63,2.05,2.06
					c0.03,1.64-0.52,2.3-2.07,2.45c-0.33,0.03-0.66,0.07-0.99,0.1c-1.34,0.12-2.22,0.83-2.4,2.19c-0.11,0.83,0.07,1.7,0.12,2.56
					c1.1,0,2.01,0.36,2.68,1.49c0.46,0.07,0.82,0.01,1.18-0.05c-0.1-0.31-0.19-0.61-0.28-0.91c0.09,0.3,0.19,0.6,0.39,0.92
					c2.17-0.05,2.81,0.7,2.55,2.74c0.67,0.23,1.26,0.46,1.84,0.69c-0.59-0.23-1.17-0.46-1.9-0.62c-0.58,0.26-1.01,0.56-1.47,0.61
					c-1.45,0.17-2.59,1.35-2.57,2.85c0.01,0.7,0.11,1.41,0.17,2.11c0.32,0.22,0.69,0.4,0.96,0.68c-0.27-0.27-0.64-0.45-0.96-0.58
					c1.12,2.07,2.51,2.56,4.5,1.54c0.94-0.48,1.83-0.68,2.86-0.26c0.02,0.03,0.04,0.06,0.06,0.08c0.87,1.12,0.9,2.47,0.01,2.55
					c-2.01,0.18-2.49,1.53-2.8,3.13c0.4,0.47,0.8,0.94,1.2,1.41c-0.4-0.47-0.81-0.91-1.22-1.32c0.05,1.85,0.94,2.98,2.6,3.46
					c0-0.15,0-0.2-0.02-0.35c1.46,0.56,2.61-0.43,3.88-0.73c-1.27,0.3-2.42,1.29-3.86,0.81c0,0.06,0,0.12,0.08,0.31
					c1.13-0.05,2.23-0.13,3.24-0.45c2.09-0.67,3.34-0.05,3.61,1.96c-0.02,0.03-0.04,0.05-0.05,0.08c-0.2,0.09-0.29,0.2-0.39,0.3
					c0.13,1.04-0.61,1.2-1.37,1.4c0.76-0.2,1.49-0.36,1.27-1.39c-0.51,0.2-0.93,0.38-1.33,0.59c-1.89,1-2.45,2.57-1.61,4.48
					c0.67,1.54,2.39,2.21,4.2,1.65c0.6-0.18,1.22-0.31,1.8-0.54c0.04,0,0.09,0,0.13,0.01c0.08,0.13,0.2,0.14,0.2,0.14
					c0.22-0.08,0.44-0.16,0.66-0.24c-0.22,0.08-0.44,0.16-0.62,0.3c0.26,0.25,0.48,0.43,0.78,0.56c0-0.18-0.03-0.34-0.06-0.5
					c0.04,0.17,0.07,0.36,0.09,0.61c0.19,0.77,0.43,1.38,0.67,2c0.01,0.15,0.01,0.29,0.01,0.45c-0.02-0.15-0.05-0.3-0.1-0.44
					c-0.01,0.25,0.03,0.48,0.09,0.71c-0.01,0.09-0.02,0.19-0.03,0.3c-0.11,0.38-0.15,0.63-0.18,0.88c-0.44,0.27-0.85,0.62-1.33,0.79
					c0.48-0.17,0.89-0.52,1.22-0.76c-0.35,0.07-0.6,0.12-0.84,0.15c-1.95,0.22-2.88,1.28-2.72,3.11c0.15,1.78,1.28,2.58,3.28,2.49
					c0.62-0.03,1.26,0.22,1.89,0.35c0.11-0.01,0.22-0.02,0.4-0.13c0.02-0.46-0.03-0.81-0.08-1.17c0.05,0.36,0.1,0.72,0.16,1.17
					c0.05,0.61,0.1,1.12,0.15,1.74c0.1,0.56,0.22,1.01,0.28,1.46c0.15,1.23,0.28,2.46,0.43,3.78c0.21,0.07,0.4,0.06,0.68,0.03
					c0.2-0.62,0.32-1.24,0.42-1.95c-0.7-0.58-0.66-0.83,0.29-1.38c0.14-0.45,0.18-0.9,0.21-1.43c-0.03,0.54-0.08,0.98-0.11,1.53
					c0.04,0.32,0.07,0.54,0.18,0.69c0.19-0.75,0.3-1.44,0.35-2.15c-0.18-0.07-0.3-0.12-0.41-0.08v0c-0.17-0.32-0.49-0.74-0.47-0.75
					c-0.02,0.01,0.3,0.43,0.46,0.66C36.16,116.02,36.28,116.07,36.52,116.06z"/>
				<path class="st6" d="M33.56,118.31c0.07-0.89,0.13-1.8,0.19-2.75c-0.05-0.62-0.1-1.13-0.23-1.63c-0.19,0.02-0.3,0.02-0.4,0.15
					c-0.04,2.31-0.08,4.51-0.04,6.67c0.08-0.12,0.16-0.23,0.22-0.34c-0.06,0.12-0.15,0.25-0.26,0.41c-0.07,0.39-0.03,0.68,0.02,0.97
					c0.97-0.17,1.13,0.27,0.98,1.14c-0.1,0.58,0.05,1.21,0.24,1.84c0.4-0.63,0.63-1.27,0.87-1.91c0.03-0.61,0.06-1.22-0.01-1.92
					c-0.29-0.07-0.48-0.05-0.66-0.04c-0.06,0.13-0.13,0.26-0.19,0.39c0.06-0.13,0.13-0.26,0.12-0.38c-0.14,0.1-0.21,0.18-0.28,0.26
					c0.07-0.08,0.14-0.16,0.26-0.35c-0.09-1.34-0.21-2.57-0.36-3.79c-0.06-0.45-0.18-0.9-0.27-1.35
					C33.69,116.55,33.63,117.43,33.56,118.31z"/>
				<path class="st6" d="M32.78,126.77c0.2-0.42,0.4-0.83,0.6-1.25c0,0,0,0-0.09,0.01c-0.15-0.39-0.39-0.76-0.79-1.12
					c-0.42,1.15-0.7,2.29-0.93,3.44c-0.05,0.23,0.08,0.5,0.13,0.75c0.28-0.11,0.68-0.14,0.81-0.35c0.59-0.91,1.1-1.86,1.64-2.8
					c-0.19,0.02-0.38,0.03-0.67,0.06C33.18,125.93,32.98,126.35,32.78,126.77z"/>
				<path class="st6" d="M33.02,121.85c-0.2,0.88-0.36,1.68-0.43,2.51c0.32,0.41,0.56,0.78,0.8,1.16c0,0,0,0,0.1-0.01
					c0.29-0.03,0.48-0.04,0.71-0.14c0.07-0.23,0.1-0.38,0.03-0.58c-0.13-0.66-0.28-1.29-0.18-1.87
					C34.2,122.04,34.04,121.61,33.02,121.85z"/>
				<path class="st6" d="M13.36,54.84c-0.78-1.43-1.01-2.85-0.62-4.34c-0.26,0.15-0.43,0.28-0.61,0.51
					C11.83,52.61,11.86,54,13.36,54.84z"/>
				<path class="st6" d="M28.01,90.66c-0.6-1.08-1.18-2.07-1.76-2.95c0.27,1,0.5,1.91,0.85,2.76
					C27.19,90.67,27.71,90.67,28.01,90.66z"/>
				<path class="st6" d="M35.24,120.92c-0.03,0.7-0.05,1.31-0.05,1.84c0.3-1.48,0.57-2.88,0.84-4.28c-0.12,0.08-0.24,0.15-0.41,0.36
					C35.46,119.6,35.35,120.21,35.24,120.92z"/>
				<path class="st6" d="M14.09,39.38c-0.02-0.02-0.05-0.08-0.05-0.08c-0.22,0.22-0.43,0.45-0.72,0.72
					c-0.07,0.05-0.05,0.05-0.05,0.05c-0.05,0.2-0.09,0.39-0.2,0.74c-0.13,0.59-0.2,1.03-0.24,1.56c0.24,0.59,0.46,1.09,0.68,1.48
					C13.09,42.21,13.59,40.81,14.09,39.38z"/>
				<path class="st6" d="M10.77,74.52c0.88,0.54,1.73,1,2.57,1.37C12.76,74.79,11.85,74.43,10.77,74.52z"/>
				<path class="st6" d="M35.85,117.61c-0.95,0.44-0.99,0.69-0.24,1.14c0.18-0.11,0.3-0.19,0.44-0.29c0.02-0.03-0.01-0.1-0.01-0.1
					C36.01,118.14,35.98,117.92,35.85,117.61z"/>
				<path class="st6" d="M13.19,40.06c-0.11,0.23-0.13,0.47-0.1,0.66C13.19,40.47,13.23,40.27,13.19,40.06z"/>
				<path class="st6" d="M17.22,46.17c-1.14-0.71-2.27-1.33-3.37-1.87C14.99,45.01,16.11,45.63,17.22,46.17z"/>
				<path class="st6" d="M18.01,46.98c0.11,0.17,0.2,0.28,0.35,0.33C18.28,47.14,18.13,47.03,18.01,46.98z"/>
			</g>
			
				<ellipse transform="matrix(0.996 -0.0888 0.0888 0.996 -2.027 2.6208)" class="st5" cx="28.42" cy="24.08" rx="9.67" ry="10.95"/>
		</g>
		<g>
			<g>
				<text transform="matrix(1 0 0 1 62.085 70.8668)" class="st6 st7 st8">Align</text>
				<text transform="matrix(1 0 0 1 218.5499 70.8658)" class="st9 st7 st8">Asya</text>
			</g>
		</g>
	</g>
</g>
</svg>
